<svg width="1024" height="1024" viewBox="0 0 1024 1024" fill="none" xmlns="http://www.w3.org/2000/svg">
<g clip-path="url(#clip0_8_5)">
<path d="M605 1025C403.333 1025 202.167 1025 1 1025C1 683.667 1 342.333 1 1C342.333 1 683.667 1 1025 1C1025 342.333 1025 683.667 1025 1025C885.167 1025 745.333 1025 605 1025ZM477.056 314.044C477.056 314.044 477.271 314.043 476.75 314.32C476.555 314.649 476.359 314.979 476.442 315.206C476.442 315.206 476.544 315.485 475.805 315.363C474.411 317.998 472.556 320.496 471.724 323.298C470.269 328.201 469.453 333.293 468.346 338.3C467.701 341.215 467.01 344.119 466.16 347.688C466.126 348.142 466.093 348.596 465.333 349.037C464.672 348.381 463.523 347.788 463.429 347.059C462.676 341.225 462.432 335.311 461.431 329.526C460.142 322.067 460.385 315.047 464.522 308.413C465.092 307.499 464.499 305.861 464.469 304.568C464.469 304.568 464.495 304.562 465.167 304.717C466.113 303.491 467.059 302.266 468.035 300.387C468.499 299.231 468.963 298.074 470.158 296.834C473.205 292.412 476.372 288.067 479.258 283.542C481.386 280.206 483.145 276.636 485.542 272.933C485.442 272.199 485.341 271.466 485.212 270.471C485.212 270.471 485.446 270.353 485.947 270.615C486.187 270.542 486.427 270.468 486.667 270.395C486.453 270.109 486.24 269.824 486.119 269.176C486.119 269.176 486.494 269.192 487.112 269.151C488.188 267.819 490.027 266.584 490.212 265.138C491.145 257.854 491.68 250.517 492.291 243.194C492.777 237.367 486.991 230.731 480.975 230.024C480.975 230.024 480.971 230.094 480.877 229.434C480.238 229.155 479.599 228.877 478.96 228.598C478.699 229.486 478.438 230.374 478.176 231.109C478.176 231.109 478.328 231.127 477.717 231.189C476.894 232.85 476.072 234.512 475.678 236.34C475.678 236.34 475.554 236.784 474.868 236.448C473.608 239.355 472.349 242.262 471.076 245.04C471.076 245.04 471.205 245.036 470.685 245.269C470.502 245.592 470.32 245.914 470.592 246.261C470.592 246.261 470.592 246.716 469.898 246.461C466.991 251.408 464.085 256.356 461.043 261.167C461.043 261.167 461.183 261.035 460.669 261.266C460.449 261.565 460.23 261.864 460.023 262.005C460.023 262.005 460.18 262.018 459.656 262.251C459.449 262.564 459.243 262.877 459.093 263.023C459.093 263.023 459.258 263.086 458.61 263.176C457.522 265.19 456.434 267.203 455.133 269.043C455.133 269.043 455.37 269.182 454.751 269.45C454.607 270.066 454.463 270.683 454.491 271.254C454.491 271.254 454.539 271.425 453.756 271.342C453.268 272.662 452.78 273.982 452.21 275.147C452.21 275.147 452.375 275.088 451.746 275.398C451.592 276.037 451.438 276.676 451.386 277.241C451.386 277.241 451.448 277.352 450.757 277.222C447.57 278.274 447.453 280.587 448.266 283.188C448.266 283.188 448.348 283.235 447.738 283.155C444.39 285.851 442.593 289.236 443.193 293.807C443.193 293.807 443.036 293.934 442.328 293.896C438.139 296.557 436.982 301.158 434.501 305.619C429.462 308.347 429.073 314.13 429.174 318.097C429.394 326.741 431.734 335.336 433.276 343.938C433.65 346.026 434.593 348.044 434.75 350.134C435.276 357.156 435.994 364.205 435.848 371.227C435.614 382.471 434.862 393.709 434.091 404.934C433.777 409.521 432.271 414.073 432.323 418.629C432.405 425.741 433.74 432.838 433.836 439.95C433.968 449.746 433.325 459.55 433.236 469.352C433.178 475.651 434.298 482.049 433.538 488.237C431.078 508.276 431.716 527.77 439.402 546.844C443.458 556.906 446.903 567.335 449.36 577.893C453.416 595.326 456.449 612.997 460.005 631.036C460.822 631.036 462.223 631.036 463.91 631.259C463.91 631.259 463.824 631.611 463.452 632.238C464.055 632.775 464.658 633.312 465.093 633.907C465.093 633.907 465.047 633.735 465.309 634.277C465.642 634.489 465.975 634.701 466.068 634.943C466.068 634.943 466.046 634.701 466.346 635.204C466.658 635.423 466.971 635.642 467.222 635.531C467.222 635.531 467.55 635.462 467.34 636.156C468.157 636.873 468.974 637.589 470.675 638.605C470.965 638.717 471.255 638.83 471.474 639.077C471.474 639.077 471.704 638.932 472.333 639.035C478.384 641.448 484.311 644.275 490.527 646.138C495.191 647.537 500.244 648.344 505.091 648.213C509.301 648.099 513.517 646.467 517.637 645.201C521.952 643.875 526.156 642.184 531.327 640.771C537.26 638.923 543.207 637.118 549.09 635.123C549.445 635.003 549.287 633.373 549.419 632.424C549.419 632.424 549.471 632.41 550.027 632.569C550.314 632.369 550.601 632.169 551.401 631.918C551.577 631.284 551.754 630.649 551.917 629.314C551.57 628.259 551.222 627.203 550.636 625.439C547.039 614.622 543.393 603.821 539.861 592.983C536.883 583.846 533.928 574.699 531.18 565.491C529.822 560.941 528.364 556.281 528.069 551.6C527.861 548.282 526.795 546.785 523.474 546.035C523.474 546.035 523.04 546.091 523.018 545.363C523.746 543.374 524.321 541.312 525.234 539.413C527.053 535.633 529.057 531.943 530.996 528.032C530.996 528.032 531.18 528.039 531.701 527.715C532.139 526.842 532.577 525.969 533.106 524.525C533.149 524.336 533.191 524.148 533.76 523.865C535.242 521.98 536.761 520.122 538.197 518.203C540.031 515.753 541.799 513.253 544.039 510.163C543.582 509.81 542.354 508.863 541.074 507.452C541.074 507.452 541.42 507.139 542.073 507.486C542.526 507.353 543.154 507.367 543.406 507.066C549.532 499.724 547.645 490.445 549.354 482.031C549.401 481.799 548.669 481.408 547.991 480.294C547.993 477.411 547.995 474.529 547.843 470.977C549.222 466.48 550.774 462.026 551.884 457.463C552.244 455.983 551.446 454.22 551.256 452.326C551.256 452.326 551.528 452.307 552.213 452.68C553.13 452.073 554.048 451.466 555.257 450.242C557.238 448.206 559.219 446.171 561.119 444.119C561.119 444.119 561.134 444.2 561.633 444.019C564.054 442.661 566.474 441.303 569.645 439.796C571.423 438.518 573.201 437.24 575.088 435.429C575.401 435.286 575.715 435.144 576.665 434.843C577.447 434.233 578.228 433.623 579.798 432.889C581.626 431.854 583.462 430.835 585.278 429.781C586.808 428.892 588.308 427.952 589.834 427.054C592.608 425.421 595.392 423.803 598.954 422.038C604.363 423.167 608.258 419.272 612.838 417.703C614.128 417.261 614.933 415.409 616.61 414.032C617.875 413.003 619.141 411.974 621.229 410.926C622.079 409.845 622.93 408.764 623.865 407.904C623.865 407.904 623.639 407.974 624.212 407.603C623.828 406.401 623.443 405.198 623.004 404.014C623.004 404.014 623.003 403.957 622.9 403.323C622.281 402.548 621.662 401.774 621.001 401.017C621.001 401.017 621 400.972 620.896 400.272C619.914 399.494 618.932 398.716 617.806 397.811C617.806 397.811 617.916 397.654 617.95 396.819C616.894 395.893 615.837 394.968 614.392 394.004C614.099 393.932 613.939 393.746 614.108 392.868C613.538 392.243 612.967 391.074 612.398 391.076C604.529 391.097 596.611 390.839 588.821 391.7C586.605 391.945 584.761 395.56 582.268 397.7C582.268 397.7 582.156 397.229 581.422 397.092C575.825 397.326 570.692 398.95 565.449 402.376C559.853 405.844 554.328 409.436 548.632 412.733C545.444 414.579 541.915 415.824 538.643 417.539C532.548 420.733 532.579 420.793 527.422 414.394C524.793 410.868 525.019 406.969 526.891 403.452C529.392 398.756 532.621 394.454 535.349 389.871C538.251 384.994 540.726 379.854 543.766 375.069C547.644 368.965 551.125 362.488 557.527 357.761C557.759 357.519 557.88 357.232 558.593 357.054C561.56 357.034 565.637 358.807 565.595 353.181C568.696 351.726 571.722 350.073 574.921 348.885C577.139 348.061 579.697 348.16 581.925 347.355C588.452 344.996 594.756 341.894 601.42 340.094C604.66 339.219 605.977 338.117 606.752 334.968C607.518 333.994 608.283 333.021 609.748 331.848C610.156 331.564 610.731 331.372 610.948 330.982C615.965 321.939 613.283 317.378 603.179 317.146C591.314 316.874 580.024 319.626 568.714 322.721C560.883 324.865 552.81 326.128 544.997 328.322C538.923 330.027 532.02 331.048 529.843 339.401C529.391 340.278 528.938 341.154 528.142 342.659C524.775 346.423 521.408 350.186 517.377 354.088C516.579 355.386 515.782 356.684 514.258 357.949C512.856 359.651 511.454 361.354 509.541 363.165C509.375 363.456 509.209 363.747 508.328 363.973C505.59 366.691 502.852 369.41 499.409 372.012C498.946 372.112 498.483 372.212 497.393 372.166C497.104 370.53 495.977 368.16 496.663 367.378C500.789 362.669 497.909 356.969 499.299 351.917C500.592 347.218 501.461 342.389 502.283 337.578C503.377 331.179 504.231 324.742 508.295 319.323C508.484 319.072 508.097 318.389 508.244 317.295C508.808 316.189 509.371 315.083 510 313.976C510 313.976 509.969 313.92 510.433 313.59C511.348 313.018 512.263 312.446 513.975 311.748C514.744 311.495 515.936 311.471 516.217 310.954C518.659 306.451 520.594 301.635 523.376 297.366C525.525 294.07 528.571 291.32 531.412 288.525C534.129 285.85 537.097 283.429 540.196 280.307C541.19 279.547 542.184 278.787 543.863 277.813C547.967 276.039 551.715 273.966 551.475 268.616C551.475 268.616 551.475 268.507 552.216 268.686C552.918 268.301 553.888 268.093 554.28 267.503C558.126 261.719 557.573 255.18 556.92 248.795C556.778 247.411 554.424 246.253 552.868 244.74C552.868 244.74 552.927 244.411 552.716 243.827C552.427 243.55 552.138 243.274 551.982 243.033C551.982 243.033 551.944 243.166 551.845 242.463C548.861 239.918 547.736 241.325 547.398 244.615C547.398 244.615 547.295 244.627 546.792 244.207C539.218 246.119 534.397 251.892 528.365 257.193C525.307 258.454 522.209 259.626 519.205 261.005C517.139 261.955 514.463 262.697 513.336 264.384C507.143 273.653 501.472 283.269 495.337 292.579C493.297 295.675 490.415 298.216 487.25 301.146C485.097 301.511 482.75 301.712 483.995 305.528C483.702 305.703 483.408 305.879 482.496 306.324C481.029 308.601 479.562 310.877 478.062 313.05C478.062 313.05 478.167 313.025 477.635 313.262C477.445 313.594 477.254 313.926 477.056 314.044ZM600.395 228.803C600.585 228.478 600.774 228.154 600.984 227.958C600.984 227.958 600.855 227.974 601.414 227.786C601.596 227.448 601.779 227.11 602.148 226.276C602.682 225.837 603.216 225.398 604.32 224.739C604.532 224.401 604.744 224.064 605.056 223.33C605.223 223.082 605.456 222.959 606.328 222.796C606.545 222.48 606.762 222.164 606.956 221.989C606.956 221.989 606.816 221.962 607.347 221.809C607.541 221.52 607.735 221.23 608.629 221.059C610.925 220.006 614.295 219.717 612.377 215.557C612.377 215.557 612.486 215.438 613.227 215.684C614.619 214.599 616.552 213.801 617.309 212.377C620.168 207.005 622.825 201.506 625.201 195.904C626.743 192.266 627.667 188.367 628.809 184.253C628.809 184.253 629.04 184.005 629.488 183.736C629.647 183.429 629.806 183.121 629.908 183.01C629.908 183.01 629.713 182.949 630.36 182.685C630.518 182.043 630.677 181.401 630.847 180.73C630.847 180.73 630.815 180.723 631.462 180.871C632.202 178.812 632.942 176.753 633.721 174.879C633.721 174.879 633.627 174.715 634.308 174.904C634.542 174.93 634.776 174.956 635.074 175.057C635.074 175.057 634.982 175.008 635.199 174.314C635.703 172.446 636.206 170.578 636.662 168.778C636.662 168.778 636.612 168.71 637.292 168.825C637.884 167.234 638.477 165.642 638.692 163.62C633.898 168.809 629.047 173.947 624.33 179.205C621.564 182.288 619.116 185.656 616.338 188.726C612.349 193.132 608.189 197.383 604.103 201.701C602.962 202.906 601.824 204.114 600.403 205.135C600.299 205.097 600.195 205.06 600.091 205.022C600.166 205.244 600.242 205.466 600.225 206.088C599.983 206.406 599.74 206.724 598.966 207.458C598.721 208.04 598.477 208.622 598.695 209.366C598.695 209.366 598.574 209.841 597.881 209.523C595.733 213.438 593.269 217.218 591.52 221.304C589.46 226.114 587.82 231.136 586.451 236.189C586.107 237.457 587.497 239.195 588.091 240.717C589.053 239.457 590.015 238.196 590.986 236.999C590.986 236.999 590.926 236.978 591.614 236.887C592.343 236.114 593.072 235.342 593.771 234.844C593.771 234.844 593.501 234.788 594.109 234.639C594.406 234.363 594.702 234.088 594.98 233.987C594.98 233.987 594.805 233.966 595.338 233.754C595.549 233.446 595.76 233.138 595.974 232.971C595.974 232.971 595.833 232.97 596.369 232.753C596.565 232.43 596.76 232.107 596.975 231.966C596.975 231.966 596.793 231.98 597.32 231.713C597.521 231.378 597.722 231.044 597.943 230.354C597.943 230.354 598.053 230.014 598.408 229.98C598.408 229.98 598.763 229.957 599.323 229.785C599.542 229.48 599.761 229.176 599.959 228.993C599.959 228.993 599.838 228.968 600.395 228.803ZM385.055 275.65C385.055 275.65 385.088 275.984 384.693 275.364C384.486 275.233 384.279 275.102 383.994 274.261C382.33 272.839 380.667 271.416 379 270C379 270 379.007 269.996 378.583 269.444C376.252 267.619 373.985 265.705 371.577 263.988C364.802 259.157 358.028 254.32 351.138 249.656C347.096 246.92 342.726 244.668 338.703 241.907C334.919 239.309 331.396 236.329 327.165 233.059C327.758 234.885 327.807 236.295 328.536 237.046C330.707 239.284 333.304 241.114 335.436 243.384C337.818 245.921 339.873 248.766 342.307 252.19C343.276 252.753 344.246 253.315 345.087 253.941C345.087 253.941 345.035 253.808 345.224 254.356C345.535 254.562 345.846 254.768 346.05 254.938C346.05 254.938 346.093 254.834 345.991 255.571C348.067 257.369 350.143 259.168 352.635 261.066C352.904 261.229 353.036 261.468 353.247 262.318C353.545 262.543 353.843 262.767 354.032 262.965C354.032 262.965 354.064 262.856 354.033 263.598C355.399 264.725 356.766 265.852 358.584 267.1C358.876 267.283 359.018 267.547 359.067 268.6C359.867 269.299 360.667 269.999 361.335 270.652C361.335 270.652 361.425 270.545 361.275 271.259C362.29 272.076 363.304 272.893 364.029 274.246C364.765 274.751 365.5 275.257 366.126 276.5C367.154 277.255 368.182 278.009 369.189 279.489C369.962 279.845 370.734 280.202 371.43 280.644C371.43 280.644 371.388 280.538 371.261 281.264C373.852 285.173 377.057 287.813 381.773 289.481C388.133 291.731 393.969 295.464 400.03 298.56C400.492 298.268 400.954 297.976 401.415 297.684C401.024 296.123 400.632 294.561 399.607 292.938C398.619 292.163 397.472 291.523 396.671 290.587C393.712 287.13 390.868 283.574 388.013 280.022C388.013 280.022 387.968 280.01 387.992 279.297C387.36 278.782 386.729 278.266 385.945 277.088C385.904 276.865 385.863 276.642 386.17 276.216C386.043 276.325 385.916 276.434 385.34 276.24C385.209 276.117 385.077 275.994 385.055 275.65ZM330.357 745.215C330.658 745.44 330.959 745.664 331.099 745.813C331.099 745.813 331.186 745.659 331.46 746.278C332.075 746.446 332.691 746.613 333.183 746.782C333.183 746.782 333.209 746.661 333.179 747.39C334.486 748.324 335.669 749.589 337.122 750.14C348.387 754.416 359.667 758.655 371.014 762.708C383.292 767.092 395.684 771.156 407.951 775.569C414.57 777.951 420.921 781.108 427.591 783.313C438.304 786.855 449.265 789.646 459.969 793.211C474.256 797.971 488.321 803.408 502.647 808.039C507.325 809.551 512.381 811.224 517.561 809.101C519.996 808.103 522.604 807.536 525.106 806.694C530.578 804.853 536.11 803.156 541.476 801.039C548.639 798.215 555.582 794.823 562.772 792.077C576.794 786.721 590.938 781.689 604.998 776.434C613.166 773.382 621.247 770.102 629.407 767.029C636.934 764.194 644.501 761.46 652.075 758.753C658.747 756.369 665.633 754.484 672.078 751.604C675.901 749.897 679.053 746.69 682.581 744.264C682.581 744.264 682.796 744.416 683.286 743.977C683.498 743.603 683.71 743.228 683.59 742.904C683.59 742.904 683.524 742.574 684.25 742.789C685.147 741.89 686.77 741.035 686.827 740.086C687.322 731.84 687.749 723.578 687.778 715.32C687.811 705.511 687.012 695.688 687.327 685.895C687.814 670.725 689.212 655.584 689.701 640.414C690.038 629.958 689.562 619.471 689.221 609.006C689.19 608.043 687.501 607.134 686.808 606.107C686.808 606.107 686.886 606.34 686.673 605.773C686.359 605.532 686.045 605.29 685.953 605.057C685.953 605.057 685.936 605.279 685.692 604.729C685.36 604.517 685.027 604.306 684.922 604.073C684.922 604.073 684.932 604.3 684.68 603.776C684.378 603.546 684.076 603.316 683.875 603.405C683.875 603.405 683.558 603.513 683.694 602.785C677.597 599.493 671.774 595.452 665.334 593.096C657.014 590.053 648.185 588.42 639.609 586.056C635.01 584.789 630.493 583.229 625.92 581.863C615.634 578.789 605.349 575.714 595.041 572.714C584.573 569.668 574.125 566.518 563.538 563.954C562.17 563.622 559.56 566.226 558.372 568.029C557.394 569.512 557.057 572.183 560.966 572.573C561.052 574.66 561.137 576.748 560.836 579.271C562.02 580.58 562.963 582.57 564.427 583.088C573.418 586.271 582.518 589.147 591.604 592.056C592.988 592.499 594.553 592.39 595.921 592.863C602.438 595.113 608.836 597.737 615.424 599.745C628.825 603.829 642.322 607.597 655.777 611.505C659.283 612.524 662.779 613.581 666.279 614.62C666.29 615.138 666.301 615.655 666.312 616.173C665.282 616.713 664.293 617.358 663.216 617.775C656.82 620.252 650.424 622.734 643.987 625.102C635.285 628.302 626.538 631.384 617.821 634.548C606.155 638.781 594.479 642.99 582.875 647.389C581.881 647.766 581.398 649.491 580.241 650.638C580.241 650.638 580.156 650.207 579.532 650.108C579.021 650.403 578.51 650.699 577.575 651.06C577.575 651.06 577.147 651.049 576.509 650.952C570.489 652.635 564.467 654.312 558.449 656.003C554.478 657.12 551.309 661.919 546.978 658.753C545.869 659.978 545.157 661.441 544.042 661.877C539.591 663.62 534.943 664.866 530.518 666.665C528.553 667.464 526.945 669.14 525.065 670.286C525.065 670.286 525.202 670.184 524.358 670.009C523.06 670.225 521.769 670.522 520.462 670.64C516.564 670.992 512.415 672.267 508.808 671.379C500.973 669.451 493.428 666.361 485.739 663.824C470.009 658.636 454.239 653.569 438.53 648.318C426.144 644.177 413.844 639.781 401.472 635.596C387.773 630.963 374.038 626.439 360.317 621.87C355.478 620.259 350.635 618.657 345.878 616.371C348.438 614.858 350.83 612.848 353.586 611.918C365.331 607.955 377.224 604.432 388.985 600.513C397.862 597.555 406.617 594.234 415.436 591.101C416.052 590.883 416.805 591.024 417.397 590.772C420.997 589.238 424.732 587.923 428.105 585.982C431.539 584.006 431.546 581.394 427.504 578.727C425.652 576.095 423.8 573.463 421.77 570.167C417.666 566.354 413.698 569.537 409.934 570.713C403.434 572.744 397.16 575.484 390.738 577.779C385.314 579.718 379.8 581.403 374.353 583.279C367.673 585.581 361.15 588.469 354.329 590.198C342.954 593.082 331.884 596.341 322.738 604.156C323.066 605.582 323.586 606.828 323.604 608.082C323.793 621.216 323.98 634.35 324.018 647.485C324.094 674.303 323.996 701.121 324.187 727.938C324.216 731.957 325.416 735.968 326.471 740.415C326.844 740.344 327.218 740.272 327.716 740.606C327.716 740.606 327.326 740.776 327.196 741.411C327.576 741.872 327.956 742.333 328.191 742.856C328.191 742.856 328.148 742.706 328.362 743.254C328.698 743.441 329.033 743.628 329.187 743.902C329.187 743.902 329.114 743.715 329.364 744.239C329.687 744.44 330.01 744.64 330.153 744.865C330.153 744.865 330.149 744.683 330.357 745.215ZM688.405 247.786C688.589 247.436 688.773 247.086 689.041 246.33C689.198 246.063 689.431 245.938 690.51 246.065C691.633 244.647 692.757 243.229 693.914 241.93C693.914 241.93 693.793 241.954 694.359 241.783C694.555 241.458 694.752 241.132 694.897 240.913C694.897 240.913 694.796 240.851 695.532 241.037C697.355 239.697 699.325 238.506 700.923 236.936C701.514 236.355 701.697 234.471 701.218 233.925C700.672 233.302 698.769 232.995 698.183 233.462C696.954 234.443 696.201 236.02 695.146 237.202C695.146 237.202 695.308 237.111 694.739 237.257C694.496 237.544 694.252 237.831 694.03 238.027C694.03 238.027 694.121 238.053 693.339 238.01C692.464 238.857 691.588 239.704 690.495 240.706C690.495 240.706 690.291 240.534 689.551 240.244C685.035 243.459 680.519 246.674 675.501 250.039C675.327 250.027 675.153 250.015 674.356 250.215C673.586 250.849 672.816 251.483 671.79 252.741C668.581 254.843 665.372 256.944 661.612 259.314C661.018 259.82 660.424 260.326 659.13 260.971C655.747 263.976 652.363 266.982 648.246 269.944C644.837 272.778 641.422 275.605 638.073 278.509C638.015 278.559 638.754 279.53 639.329 280.789C635.687 285.529 632.046 290.27 628.404 295.01C628.832 295.521 629.26 296.032 629.688 296.544C636.063 293.342 642.438 290.14 649.562 286.86C651.082 285.946 652.602 285.033 654.785 283.93C658.891 280.356 663.094 276.883 667.037 273.138C668.068 272.159 668.295 270.332 669.555 268.741C673.079 265.789 676.879 263.102 680.039 259.801C682.454 257.277 684.06 253.978 686.668 250.788C687.08 249.805 687.492 248.823 687.935 247.946C687.935 247.946 687.829 247.97 688.405 247.786ZM417.312 218.248C417.597 218.537 417.881 218.827 418.619 219.587C422.076 223.091 425.533 226.596 429.153 230.718C428.934 231.709 428.714 232.701 428.488 233.723C430.106 233.83 431.411 233.917 433.369 234.058C433.58 234.413 433.791 234.769 434.202 235.82C434.777 239.784 438.141 239 440.667 239.409C441.023 239.467 442.304 237.522 442.074 236.915C439.902 231.198 437.495 225.571 435.069 219.114C433.958 215.303 433.45 211.146 431.529 207.8C430.203 205.49 426.923 204.303 424.4 202.516C424.4 202.516 424.433 202.369 424.744 201.627C423.731 200.773 422.717 199.919 421.152 198.678C420.703 197.824 420.415 196.822 419.781 196.14C413.202 189.068 406.569 182.048 399.877 174.302C396.942 170.874 394.037 167.419 391.029 164.056C390.704 163.692 389.787 163.858 388.687 163.73C387.595 167.125 389.461 168.789 392.172 169.918C392.172 169.918 392.158 169.794 392.019 170.464C393.086 172.285 394.154 174.107 395.14 175.946C395.14 175.946 395.193 175.881 395.069 176.551C400.255 187.87 405.415 199.202 410.692 210.479C411.019 211.177 412.268 211.443 412.947 212.672C413.214 215.441 414.095 217.645 417.364 217.739C417.364 217.739 417.206 217.637 417.312 218.248ZM513.114 215.228C514.084 214.734 515.753 214.408 515.918 213.721C518.336 203.696 520.816 193.672 522.716 183.541C523.833 177.584 524.289 171.446 524.413 165.377C524.515 160.359 523.83 155.307 523.24 150.3C522.751 146.14 521.721 142.042 521.244 137.881C520.668 132.86 520.614 127.778 519.986 122.765C519.207 116.537 516.832 110.212 517.513 104.197C517.99 99.9894 517.04 96.3241 516.71 92.4543C516.578 90.918 514.894 89.5145 513.513 87.9988C512.968 90.3473 512.422 92.6958 511.308 95.1769C510.707 96.3994 509.698 97.5828 509.576 98.8514C509.112 103.675 509.11 108.548 508.545 113.356C508.374 114.81 506.94 116.115 506.72 116.468C506.72 120.538 506.906 123.816 506.672 127.064C506.39 130.959 506.108 134.916 505.185 138.689C503.673 144.872 506.684 151.967 501.425 157.392C501.171 157.654 501.142 158.604 501.372 158.794C504.713 161.552 502.299 165.155 502.799 168.313C504.005 175.935 504.67 183.659 506.203 191.21C507.76 198.883 510.096 206.399 512.279 214.511C512.35 214.684 512.42 214.856 512.453 215.142C512.453 215.142 512.563 215.015 513.114 215.228Z" fill="#B499FF"/>
</g>
<defs>
<clipPath id="clip0_8_5">
<rect width="1024" height="1024" fill="white"/>
</clipPath>
</defs>
</svg>
